<svg viewBox="0 0 11.028 33.991">
  <path id="arrow_Kopie_8" data-name="arrow Kopie 8" d="M1060.277,1721.444s.036,0,.036-.032c.036-.032.072-.032.106-.065l4.921-4.344a.487.487,0,0,0,.178-.408.627.627,0,0,0-.178-.409.732.732,0,0,0-.928,0l-3.782,3.339v-31.472a.645.645,0,0,0-1.281,0v31.469l-3.742-3.3a.73.73,0,0,0-.928,0,.539.539,0,0,0,0,.819l4.851,4.281c.036.032.073.064.106.064l.036.032c.036,0,.036.032.073.032s.036,0,.073.032h.4c.03,0,.03,0,.063-.035Z" transform="translate(-1054.49 -1687.488)" fill="#f1f1f1"/>
</svg>
